REM DIRINDEX 1\5,1\2\6,1\2\7,1\3\8,1\3\9,1\4\10,1\4\11,1\4\12
REM DIRNAME cjc026,folder01,folder02,folder03,folder04,folder05,folder06,folder07,folder08,folder09,folder10,folder11
TITLE ""
FILE "JE_DB3000_5th_5C_03.mp3" MP3
  TRACK 01 AUDIO
    TITLE "0:"
    INDEX 01 00:00:00
  TRACK 02 AUDIO
    TITLE "6:cjc026_02145"
    INDEX 01 00:00:08
  TRACK 03 AUDIO
    TITLE "0:"
    INDEX 01 00:01:24
  TRACK 04 AUDIO
    TITLE "7:cjc026_02146"
    INDEX 01 00:01:60
  TRACK 05 AUDIO
    TITLE "0:"
    INDEX 01 00:02:68
  TRACK 06 AUDIO
    TITLE "6:cjc026_02147"
    INDEX 01 00:03:28
  TRACK 07 AUDIO
    TITLE "0:"
    INDEX 01 00:04:51
  TRACK 08 AUDIO
    TITLE "7:cjc026_02148"
    INDEX 01 00:05:11
  TRACK 09 AUDIO
    TITLE "0:"
    INDEX 01 00:06:36
  TRACK 10 AUDIO
    TITLE "6:cjc026_02149"
    INDEX 01 00:06:68
  TRACK 11 AUDIO
    TITLE "0:"
    INDEX 01 00:08:26
  TRACK 12 AUDIO
    TITLE "7:cjc026_02150"
    INDEX 01 00:08:61
  TRACK 13 AUDIO
    TITLE "0:"
    INDEX 01 00:10:11
  TRACK 14 AUDIO
    TITLE "6:cjc026_02151"
    INDEX 01 00:10:46
  TRACK 15 AUDIO
    TITLE "0:"
    INDEX 01 00:11:74
  TRACK 16 AUDIO
    TITLE "7:cjc026_02152"
    INDEX 01 00:12:36
  TRACK 17 AUDIO
    TITLE "0:"
    INDEX 01 00:13:61
  TRACK 18 AUDIO
    TITLE "6:cjc026_02153"
    INDEX 01 00:14:24
  TRACK 19 AUDIO
    TITLE "0:"
    INDEX 01 00:15:57
  TRACK 20 AUDIO
    TITLE "7:cjc026_02154"
    INDEX 01 00:16:17
  TRACK 21 AUDIO
    TITLE "0:"
    INDEX 01 00:17:34
  TRACK 22 AUDIO
    TITLE "6:cjc026_02155"
    INDEX 01 00:17:72
  TRACK 23 AUDIO
    TITLE "0:"
    INDEX 01 00:19:24
  TRACK 24 AUDIO
    TITLE "7:cjc026_02156"
    INDEX 01 00:19:62
  TRACK 25 AUDIO
    TITLE "0:"
    INDEX 01 00:21:07
  TRACK 26 AUDIO
    TITLE "6:cjc026_02157"
    INDEX 01 00:21:42
  TRACK 27 AUDIO
    TITLE "0:"
    INDEX 01 00:22:72
  TRACK 28 AUDIO
    TITLE "7:cjc026_02158"
    INDEX 01 00:23:35
  TRACK 29 AUDIO
    TITLE "0:"
    INDEX 01 00:24:49
  TRACK 30 AUDIO
    TITLE "6:cjc026_02159"
    INDEX 01 00:25:09
  TRACK 31 AUDIO
    TITLE "0:"
    INDEX 01 00:26:48
  TRACK 32 AUDIO
    TITLE "7:cjc026_02160"
    INDEX 01 00:27:10
  TRACK 33 AUDIO
    TITLE "0:"
    INDEX 01 00:28:30
  TRACK 34 AUDIO
    TITLE "6:cjc026_02161"
    INDEX 01 00:28:70
  TRACK 35 AUDIO
    TITLE "0:"
    INDEX 01 00:30:34
  TRACK 36 AUDIO
    TITLE "7:cjc026_02162"
    INDEX 01 00:30:69
  TRACK 37 AUDIO
    TITLE "0:"
    INDEX 01 00:32:08
  TRACK 38 AUDIO
    TITLE "6:cjc026_02163"
    INDEX 01 00:32:46
  TRACK 39 AUDIO
    TITLE "0:"
    INDEX 01 00:33:65
  TRACK 40 AUDIO
    TITLE "7:cjc026_02164"
    INDEX 01 00:34:25
  TRACK 41 AUDIO
    TITLE "0:"
    INDEX 01 00:35:56
  TRACK 42 AUDIO
    TITLE "6:cjc026_02165"
    INDEX 01 00:36:16
  TRACK 43 AUDIO
    TITLE "0:"
    INDEX 01 00:37:46
  TRACK 44 AUDIO
    TITLE "7:cjc026_02166"
    INDEX 01 00:38:06
  TRACK 45 AUDIO
    TITLE "0:"
    INDEX 01 00:39:23
  TRACK 46 AUDIO
    TITLE "6:cjc026_02167"
    INDEX 01 00:39:61
  TRACK 47 AUDIO
    TITLE "0:"
    INDEX 01 00:41:30
  TRACK 48 AUDIO
    TITLE "7:cjc026_02168"
    INDEX 01 00:41:65
  TRACK 49 AUDIO
    TITLE "0:"
    INDEX 01 00:43:23
  TRACK 50 AUDIO
    TITLE "6:cjc026_02169"
    INDEX 01 00:43:60
  TRACK 51 AUDIO
    TITLE "0:"
    INDEX 01 00:45:40
  TRACK 52 AUDIO
    TITLE "7:cjc026_02170"
    INDEX 01 00:46:00
  TRACK 53 AUDIO
    TITLE "0:"
    INDEX 01 00:47:28
  TRACK 54 AUDIO
    TITLE "6:cjc026_02171"
    INDEX 01 00:47:66
  TRACK 55 AUDIO
    TITLE "0:"
    INDEX 01 00:49:13
  TRACK 56 AUDIO
    TITLE "7:cjc026_02172"
    INDEX 01 00:49:51
  TRACK 57 AUDIO
    TITLE "0:"
    INDEX 01 00:51:11
  TRACK 58 AUDIO
    TITLE "6:cjc026_02173"
    INDEX 01 00:51:46
  TRACK 59 AUDIO
    TITLE "0:"
    INDEX 01 00:52:71
  TRACK 60 AUDIO
    TITLE "7:cjc026_02174"
    INDEX 01 00:53:31
  TRACK 61 AUDIO
    TITLE "0:"
    INDEX 01 00:54:56
